<svg xmlns:xlink="http://www.w3.org/1999/xlink" xmlns="http://www.w3.org/2000/svg" width="128" height="128" viewBox="0 0 24 24" fit="" preserveAspectRatio="xMidYMid meet" focusable="false"><path d="M12 2.003v2H4.995v15.995H11.4v1.998H5.002a2 2 0 0 1-2-2V4.003a2 2 0 0 1 2-2H12zM13.998 16l4 .002c.514 0 .936.387.995.884l.006.117v1.082a1.5 1.5 0 1 1-1 0V17h-4v-1zM12 15v2H8v-2h4zm7.5-7a1.5 1.5 0 0 1 .502 2.914V12a1 1 0 0 1-1 1H14v-1h5.007l-.002-1.085A1.5 1.5 0 0 1 19.5 8zM12 11v2H8v-2h4zm4.5-8a1.5 1.5 0 0 1 .5 2.915V8c0 .55-.45.998-1 1h-2.002V8h2.007l-.002-2.084A1.5 1.5 0 0 1 16.5 3zM12 7v2H8V7h4z" fill="#3367D6"></path></svg>